<svg width="126" height="30" viewBox="0 0 126 30" fill="none" xmlns="http://www.w3.org/2000/svg">
<path d="M7.78594 2.31C11.6459 2.31 14.7859 2.79 17.2059 3.75C18.0659 5.47 18.4959 7.21 18.4959 8.97C18.4959 11.23 17.7259 13.19 16.1859 14.85C13.9459 17.23 10.9159 18.42 7.09594 18.42C5.77594 18.42 3.98594 18.27 1.72594 17.97C0.945938 13.95 0.555938 10.24 0.555938 6.84C0.555938 5.66 0.615938 4.38 0.735938 3C3.95594 2.54 6.30594 2.31 7.78594 2.31ZM8.68594 4.56C8.32594 8.32 8.14594 11.02 8.14594 12.66C8.14594 14.28 8.17594 15.6 8.23594 16.62C9.31594 16.04 10.1559 15.07 10.7559 13.71C11.3759 12.33 11.6859 10.94 11.6859 9.54C11.6859 8.12 11.4259 6.96 10.9059 6.06C10.4059 5.16 9.66594 4.66 8.68594 4.56ZM39.6091 3C39.6891 4.3 39.7291 6.2 39.7291 8.7C39.7291 11.18 39.5691 13.83 39.2491 16.65C37.1691 17.99 34.6791 18.66 31.7791 18.66C27.9191 18.66 24.7991 17.99 22.4191 16.65C22.1591 14.49 22.0291 12.4 22.0291 10.38C22.0291 8.34 22.1791 5.88 22.4791 3H30.5491C29.7491 7.34 29.3291 11.51 29.2891 15.51C30.1291 16.27 31.3391 16.65 32.9191 16.65C34.4991 16.65 35.7091 16.37 36.5491 15.81C36.5891 15.15 36.6091 14.2 36.6091 12.96C36.6091 9.8 36.3291 6.48 35.7691 3H39.6091ZM60.6143 4.38C60.6143 3.84 60.5343 3.38 60.3743 3H68.9243C69.6443 4.92 70.1743 7.27 70.5143 10.05C70.8743 12.83 71.0643 15.48 71.0843 18H64.1543C64.0143 14.4 63.4243 10.93 62.3843 7.59C60.6443 10.99 59.7043 14.46 59.5643 18H53.6843C53.1643 14.08 52.1643 10.6 50.6843 7.56C49.6043 10.1 49.0643 12.46 49.0643 14.64C49.0643 15.82 49.2043 16.94 49.4843 18H42.1943C42.0543 17.18 41.9843 16.1 41.9843 14.76C41.9843 13.4 42.1843 12.04 42.5843 10.68C44.0043 10.26 45.3643 9.57 46.6643 8.61C47.9843 7.65 48.9543 6.6 49.5743 5.46C49.0543 4.6 48.5043 3.78 47.9243 3H57.4043C58.1643 5.06 58.7343 7.3 59.1143 9.72C60.1143 7.86 60.6143 6.08 60.6143 4.38ZM92.167 4.38C92.167 3.84 92.087 3.38 91.927 3H100.477C101.197 4.92 101.727 7.27 102.067 10.05C102.427 12.83 102.617 15.48 102.637 18H95.707C95.567 14.4 94.977 10.93 93.937 7.59C92.197 10.99 91.257 14.46 91.117 18H85.237C84.717 14.08 83.717 10.6 82.237 7.56C81.157 10.1 80.617 12.46 80.617 14.64C80.617 15.82 80.757 16.94 81.037 18H73.747C73.607 17.18 73.537 16.1 73.537 14.76C73.537 13.4 73.737 12.04 74.137 10.68C75.557 10.26 76.917 9.57 78.217 8.61C79.537 7.65 80.507 6.6 81.127 5.46C80.607 4.6 80.057 3.78 79.477 3H88.957C89.717 5.06 90.287 7.3 90.667 9.72C91.667 7.86 92.167 6.08 92.167 4.38ZM123.81 3.57C123.13 3.73 122.56 3.81 122.1 3.81C121.64 3.81 121.2 3.78 120.78 3.72C120.16 4.46 119.6 5.45 119.1 6.69C118.6 7.93 118.22 9.04 117.96 10.02C117.72 11 117.45 12.2 117.15 13.62C115.63 20.86 114.11 26 112.59 29.04C111.59 29.34 110.35 29.63 108.87 29.91C110.87 26.49 112.49 22.52 113.73 18H107.52C105.94 12.88 105.12 7.88 105.06 3H113.82C113.4 4.86 113.19 6.84 113.19 8.94C113.19 11.02 113.53 13.4 114.21 16.08C114.35 15.54 114.59 14.6 114.93 13.26C115.27 11.9 115.52 10.93 115.68 10.35C115.84 9.77 116.08 8.95 116.4 7.89C116.74 6.83 117.04 6.04 117.3 5.52C117.58 4.98 117.92 4.38 118.32 3.72C119.04 2.54 119.99 1.74 121.17 1.32C121.51 1.22 122.2 1.12 123.24 1.02C124.28 0.899999 125.03 0.689999 125.49 0.39C124.95 1.63 124.39 2.69 123.81 3.57Z" fill="white"/>
</svg>
