<svg width="251" height="60" viewBox="0 0 251 60" fill="none" xmlns="http://www.w3.org/2000/svg">
<path d="M15.0719 4.62C22.7919 4.62 29.0719 5.58 33.9119 7.5C35.6319 10.94 36.4919 14.42 36.4919 17.94C36.4919 22.46 34.9519 26.38 31.8719 29.7C27.3919 34.46 21.3319 36.84 13.6919 36.84C11.0519 36.84 7.47188 36.54 2.95188 35.94C1.39188 27.9 0.611875 20.48 0.611875 13.68C0.611875 11.32 0.731875 8.76 0.971875 6C7.41188 5.08 12.1119 4.62 15.0719 4.62ZM16.8719 9.12C16.1519 16.64 15.7919 22.04 15.7919 25.32C15.7919 28.56 15.8519 31.2 15.9719 33.24C18.1319 32.08 19.8119 30.14 21.0119 27.42C22.2519 24.66 22.8719 21.88 22.8719 19.08C22.8719 16.24 22.3519 13.92 21.3119 12.12C20.3119 10.32 18.8319 9.32 16.8719 9.12ZM78.7183 6C78.8783 8.6 78.9583 12.4 78.9583 17.4C78.9583 22.36 78.6383 27.66 77.9983 33.3C73.8383 35.98 68.8583 37.32 63.0583 37.32C55.3383 37.32 49.0983 35.98 44.3383 33.3C43.8183 28.98 43.5583 24.8 43.5583 20.76C43.5583 16.68 43.8583 11.76 44.4583 6H60.5983C58.9983 14.68 58.1583 23.02 58.0783 31.02C59.7583 32.54 62.1783 33.3 65.3383 33.3C68.4983 33.3 70.9183 32.74 72.5983 31.62C72.6783 30.3 72.7183 28.4 72.7183 25.92C72.7183 19.6 72.1583 12.96 71.0383 6H78.7183ZM120.729 8.76C120.729 7.68 120.569 6.76 120.249 6H137.349C138.789 9.84 139.849 14.54 140.529 20.1C141.249 25.66 141.629 30.96 141.669 36H127.809C127.529 28.8 126.349 21.86 124.269 15.18C120.789 21.98 118.909 28.92 118.629 36H106.869C105.829 28.16 103.829 21.2 100.869 15.12C98.7086 20.2 97.6286 24.92 97.6286 29.28C97.6286 31.64 97.9086 33.88 98.4686 36H83.8886C83.6086 34.36 83.4686 32.2 83.4686 29.52C83.4686 26.8 83.8686 24.08 84.6686 21.36C87.5086 20.52 90.2286 19.14 92.8286 17.22C95.4686 15.3 97.4086 13.2 98.6486 10.92C97.6086 9.2 96.5086 7.56 95.3486 6H114.309C115.829 10.12 116.969 14.6 117.729 19.44C119.729 15.72 120.729 12.16 120.729 8.76ZM183.834 8.76C183.834 7.68 183.674 6.76 183.354 6H200.454C201.894 9.84 202.954 14.54 203.634 20.1C204.354 25.66 204.734 30.96 204.774 36H190.914C190.634 28.8 189.454 21.86 187.374 15.18C183.894 21.98 182.014 28.92 181.734 36H169.974C168.934 28.16 166.934 21.2 163.974 15.12C161.814 20.2 160.734 24.92 160.734 29.28C160.734 31.64 161.014 33.88 161.574 36H146.994C146.714 34.36 146.574 32.2 146.574 29.52C146.574 26.8 146.974 24.08 147.774 21.36C150.614 20.52 153.334 19.14 155.934 17.22C158.574 15.3 160.514 13.2 161.754 10.92C160.714 9.2 159.614 7.56 158.454 6H177.414C178.934 10.12 180.074 14.6 180.834 19.44C182.834 15.72 183.834 12.16 183.834 8.76ZM247.12 7.14C245.76 7.46 244.62 7.62 243.7 7.62C242.78 7.62 241.9 7.56 241.06 7.44C239.82 8.92 238.7 10.9 237.7 13.38C236.7 15.86 235.94 18.08 235.42 20.04C234.94 22 234.4 24.4 233.8 27.24C230.76 41.72 227.72 52 224.68 58.08C222.68 58.68 220.2 59.26 217.24 59.82C221.24 52.98 224.48 45.04 226.96 36H214.54C211.38 25.76 209.74 15.76 209.62 6H227.14C226.3 9.72 225.88 13.68 225.88 17.88C225.88 22.04 226.56 26.8 227.92 32.16C228.2 31.08 228.68 29.2 229.36 26.52C230.04 23.8 230.54 21.86 230.86 20.7C231.18 19.54 231.66 17.9 232.3 15.78C232.98 13.66 233.58 12.08 234.1 11.04C234.66 9.96 235.34 8.76 236.14 7.44C237.58 5.08 239.48 3.48 241.84 2.64C242.52 2.44 243.9 2.24 245.98 2.04C248.06 1.8 249.56 1.38 250.48 0.779999C249.4 3.26 248.28 5.38 247.12 7.14Z" fill="white"/>
</svg>
